<svg width="171" height="44" viewBox="0 0 171 44" fill="none" xmlns="http://www.w3.org/2000/svg">
<path d="M13.9335 2.06853C1.30955 5.47762 -3.54307 17.1741 7.78701 21.1067H7.69505C7.74838 21.1139 7.80204 21.1223 7.85512 21.1302C8.60972 21.3886 9.43655 21.6117 10.3353 21.797C14.5595 23.4562 17.6149 27.4765 17.8626 31.4053C15.048 33.345 12.8681 36.6832 12.8681 36.6832L15.0752 39.9322L11.6133 41.9033H18.4975C15.1025 38.5074 17.5099 34.6886 21.5315 34.6886C25.6081 34.6886 27.7417 38.7292 24.568 41.9033H31.3813L27.9905 39.9322L30.1978 36.6832C30.1978 36.6832 27.9827 33.2902 25.1351 31.3581C25.4042 27.4442 28.4525 23.4495 32.6597 21.797C33.5588 21.6116 34.3852 21.3888 35.1397 21.1303C35.1929 21.1223 35.2466 21.1139 35.3 21.1068H35.2055C46.5372 17.1746 41.686 5.47779 29.0614 2.06836C25.6414 5.37482 29.6107 10.6081 32.7253 6.84514C35.8244 12.6468 33.4479 17.5605 26.6549 13.8499C25.6572 15.9069 23.7816 17.3247 21.5581 17.3247C19.3155 17.3247 17.4288 15.883 16.4376 13.7974C9.56983 17.6086 7.15629 12.6743 10.27 6.84514C13.385 10.6081 17.3541 5.37474 13.9339 2.06844L13.9335 2.06853ZM21.5584 5.08525C19.2583 5.08525 17.2475 7.39952 17.2475 10.4275C17.2475 13.4556 19.2583 15.7181 21.5584 15.7181C23.8586 15.7181 25.8691 13.4556 25.8691 10.4276C25.8691 7.39927 23.8585 5.08533 21.5584 5.08533L21.5584 5.08525Z" fill="white"/>
<path d="M48.517 23V5.54545H55.5057C56.7898 5.54545 57.8608 5.7358 58.7188 6.11648C59.5767 6.49716 60.2216 7.02557 60.6534 7.7017C61.0852 8.37216 61.3011 9.14489 61.3011 10.0199C61.3011 10.7017 61.1648 11.3011 60.892 11.8182C60.6193 12.3295 60.2443 12.75 59.767 13.0795C59.2955 13.4034 58.7557 13.6335 58.1477 13.7699V13.9403C58.8125 13.9687 59.4347 14.1562 60.0142 14.5028C60.5994 14.8494 61.0739 15.3352 61.4375 15.9602C61.8011 16.5795 61.983 17.3182 61.983 18.1761C61.983 19.1023 61.7528 19.929 61.2926 20.6562C60.8381 21.3778 60.1648 21.9489 59.2727 22.3693C58.3807 22.7898 57.2813 23 55.9744 23H48.517ZM52.2074 19.983H55.2159C56.2443 19.983 56.9943 19.7869 57.4659 19.3949C57.9375 18.9972 58.1733 18.4687 58.1733 17.8097C58.1733 17.3267 58.0568 16.9006 57.8239 16.5312C57.5909 16.1619 57.2585 15.8722 56.8267 15.6619C56.4006 15.4517 55.892 15.3466 55.3011 15.3466H52.2074V19.983ZM52.2074 12.8494H54.9432C55.4489 12.8494 55.8977 12.7614 56.2898 12.5852C56.6875 12.4034 57 12.1477 57.2273 11.8182C57.4602 11.4886 57.5767 11.0938 57.5767 10.6335C57.5767 10.0028 57.3523 9.49432 56.9034 9.10795C56.4602 8.72159 55.8295 8.52841 55.0114 8.52841H52.2074V12.8494ZM67.9467 5.54545V23H64.3161V5.54545H67.9467ZM74.5881 23.2472C73.7528 23.2472 73.0085 23.1023 72.3551 22.8125C71.7017 22.517 71.1847 22.0824 70.804 21.5085C70.429 20.929 70.2415 20.2074 70.2415 19.3438C70.2415 18.6165 70.375 18.0057 70.642 17.5114C70.9091 17.017 71.2727 16.6193 71.733 16.3182C72.1932 16.017 72.7159 15.7898 73.3011 15.6364C73.892 15.483 74.5114 15.375 75.1591 15.3125C75.9205 15.233 76.5341 15.1591 77 15.0909C77.4659 15.017 77.804 14.9091 78.0142 14.767C78.2244 14.625 78.3295 14.4148 78.3295 14.1364V14.0852C78.3295 13.5455 78.1591 13.1278 77.8182 12.8324C77.483 12.5369 77.0057 12.3892 76.3864 12.3892C75.733 12.3892 75.2131 12.5341 74.8267 12.8239C74.4403 13.108 74.1847 13.4659 74.0597 13.8977L70.7017 13.625C70.8722 12.8295 71.2074 12.142 71.7074 11.5625C72.2074 10.9773 72.8523 10.5284 73.642 10.2159C74.4375 9.89773 75.358 9.73864 76.4034 9.73864C77.1307 9.73864 77.8267 9.82386 78.4915 9.99432C79.1619 10.1648 79.7557 10.429 80.2727 10.7869C80.7955 11.1449 81.2074 11.6051 81.5085 12.1676C81.8097 12.7244 81.9602 13.392 81.9602 14.1705V23H78.517V21.1847H78.4148C78.2045 21.5938 77.9233 21.9545 77.571 22.267C77.2188 22.5739 76.7955 22.8153 76.3011 22.9915C75.8068 23.1619 75.2358 23.2472 74.5881 23.2472ZM75.6278 20.7415C76.1619 20.7415 76.6335 20.6364 77.0426 20.4261C77.4517 20.2102 77.7727 19.9205 78.0057 19.5568C78.2386 19.1932 78.3551 18.7812 78.3551 18.321V16.9318C78.2415 17.0057 78.0852 17.0739 77.8864 17.1364C77.6932 17.1932 77.4744 17.2472 77.2301 17.2983C76.9858 17.3437 76.7415 17.3864 76.4972 17.4261C76.2528 17.4602 76.0312 17.4915 75.8324 17.5199C75.4063 17.5824 75.0341 17.6818 74.7159 17.8182C74.3977 17.9545 74.1506 18.1392 73.9744 18.3722C73.7983 18.5994 73.7102 18.8835 73.7102 19.2244C73.7102 19.7188 73.8892 20.0966 74.2472 20.358C74.6108 20.6136 75.071 20.7415 75.6278 20.7415ZM90.6918 23.2557C89.3509 23.2557 88.1974 22.9716 87.2315 22.4034C86.2713 21.8295 85.5327 21.0341 85.0156 20.017C84.5043 19 84.2486 17.8295 84.2486 16.5057C84.2486 15.1648 84.5071 13.9886 85.0241 12.9773C85.5469 11.9602 86.2884 11.1676 87.2486 10.5994C88.2088 10.0256 89.3509 9.73864 90.6747 9.73864C91.8168 9.73864 92.8168 9.94602 93.6747 10.3608C94.5327 10.7756 95.2116 11.358 95.7116 12.108C96.2116 12.858 96.4872 13.7386 96.5384 14.75H93.1122C93.0156 14.0966 92.7599 13.571 92.3452 13.1733C91.9361 12.7699 91.3991 12.5682 90.7344 12.5682C90.1719 12.5682 89.6804 12.7216 89.2599 13.0284C88.8452 13.3295 88.5213 13.7699 88.2884 14.3494C88.0554 14.929 87.9389 15.6307 87.9389 16.4545C87.9389 17.2898 88.0526 18 88.2798 18.5852C88.5128 19.1705 88.8395 19.6165 89.2599 19.9233C89.6804 20.2301 90.1719 20.3835 90.7344 20.3835C91.1491 20.3835 91.5213 20.2983 91.8509 20.1278C92.1861 19.9574 92.4616 19.7102 92.6776 19.3864C92.8991 19.0568 93.044 18.6619 93.1122 18.2017H96.5384C96.4815 19.2017 96.2088 20.0824 95.7202 20.8438C95.2372 21.5994 94.5696 22.1903 93.7173 22.6165C92.8651 23.0426 91.8565 23.2557 90.6918 23.2557ZM102.153 19.233L102.161 14.8778H102.69L106.883 9.90909H111.05L105.417 16.4886H104.556L102.153 19.233ZM98.8629 23V5.54545H102.494V23H98.8629ZM107.045 23L103.192 17.2983L105.613 14.733L111.298 23H107.045ZM112.9 23V5.54545H124.457V8.58807H116.59V12.7472H123.69V15.7898H116.59V23H112.9ZM131.825 23.2557C130.501 23.2557 129.356 22.9744 128.39 22.4119C127.43 21.8437 126.688 21.054 126.165 20.0426C125.643 19.0256 125.381 17.8466 125.381 16.5057C125.381 15.1534 125.643 13.9716 126.165 12.9602C126.688 11.9432 127.43 11.1534 128.39 10.5909C129.356 10.0227 130.501 9.73864 131.825 9.73864C133.148 9.73864 134.29 10.0227 135.251 10.5909C136.217 11.1534 136.961 11.9432 137.484 12.9602C138.006 13.9716 138.268 15.1534 138.268 16.5057C138.268 17.8466 138.006 19.0256 137.484 20.0426C136.961 21.054 136.217 21.8437 135.251 22.4119C134.29 22.9744 133.148 23.2557 131.825 23.2557ZM131.842 20.4432C132.444 20.4432 132.947 20.2727 133.35 19.9318C133.754 19.5852 134.058 19.1136 134.262 18.517C134.472 17.9205 134.577 17.2415 134.577 16.4801C134.577 15.7188 134.472 15.0398 134.262 14.4432C134.058 13.8466 133.754 13.375 133.35 13.0284C132.947 12.6818 132.444 12.5085 131.842 12.5085C131.234 12.5085 130.722 12.6818 130.308 13.0284C129.898 13.375 129.589 13.8466 129.379 14.4432C129.174 15.0398 129.072 15.7188 129.072 16.4801C129.072 17.2415 129.174 17.9205 129.379 18.517C129.589 19.1136 129.898 19.5852 130.308 19.9318C130.722 20.2727 131.234 20.4432 131.842 20.4432ZM140.629 23V9.90909H144.148V12.1932H144.285C144.523 11.3807 144.924 10.767 145.487 10.3523C146.049 9.93182 146.697 9.72159 147.43 9.72159C147.612 9.72159 147.808 9.73295 148.018 9.75568C148.228 9.77841 148.413 9.80966 148.572 9.84943V13.071C148.401 13.0199 148.165 12.9744 147.864 12.9347C147.563 12.8949 147.288 12.875 147.038 12.875C146.504 12.875 146.026 12.9915 145.606 13.2244C145.191 13.4517 144.862 13.7699 144.617 14.179C144.379 14.5881 144.259 15.0597 144.259 15.5938V23H140.629ZM150.449 23V9.90909H153.909V12.2188H154.062C154.335 11.4517 154.79 10.8466 155.426 10.4034C156.062 9.96023 156.824 9.73864 157.71 9.73864C158.608 9.73864 159.372 9.96307 160.003 10.4119C160.634 10.8551 161.054 11.4574 161.264 12.2188H161.401C161.668 11.4688 162.151 10.8693 162.849 10.4205C163.554 9.96591 164.386 9.73864 165.347 9.73864C166.568 9.73864 167.56 10.1278 168.321 10.9062C169.088 11.679 169.472 12.7756 169.472 14.196V23H165.849V14.9119C165.849 14.1847 165.656 13.6392 165.27 13.2756C164.884 12.9119 164.401 12.7301 163.821 12.7301C163.162 12.7301 162.648 12.9403 162.278 13.3608C161.909 13.7756 161.724 14.3239 161.724 15.0057V23H158.205V14.8352C158.205 14.1932 158.02 13.6818 157.651 13.3011C157.287 12.9205 156.807 12.7301 156.21 12.7301C155.807 12.7301 155.443 12.8324 155.119 13.0369C154.801 13.2358 154.548 13.517 154.361 13.8807C154.173 14.2386 154.08 14.6591 154.08 15.142V23H150.449Z" fill="white"/>
<path d="M48.0568 41V32.2727H53.2898V33.2102H49.1136V36.1591H52.8977V37.0966H49.1136V41H48.0568ZM57.7166 32.2727V41H56.6598V32.2727H57.7166ZM60.9183 33.2102V32.2727H67.4637V33.2102H64.7194V41H63.6626V33.2102H60.9183ZM77.5752 32.2727V41H76.5525L71.7968 34.1477H71.7116V41H70.6548V32.2727H71.6775L76.4502 39.142H76.5355V32.2727H77.5752ZM81.2499 41V32.2727H86.517V33.2102H82.3068V36.1591H86.2443V37.0966H82.3068V40.0625H86.5852V41H81.2499ZM94.7545 34.4545C94.7034 34.0227 94.496 33.6875 94.1324 33.4489C93.7687 33.2102 93.3227 33.0909 92.7943 33.0909C92.408 33.0909 92.0699 33.1534 91.7801 33.2784C91.4932 33.4034 91.2687 33.5753 91.1068 33.794C90.9477 34.0128 90.8682 34.2614 90.8682 34.5398C90.8682 34.7727 90.9236 34.973 91.0344 35.1406C91.148 35.3054 91.2929 35.4432 91.469 35.554C91.6452 35.6619 91.8298 35.7514 92.023 35.8224C92.2162 35.8906 92.3937 35.946 92.5557 35.9886L93.442 36.2273C93.6693 36.2869 93.9222 36.3693 94.2006 36.4744C94.4818 36.5795 94.7503 36.723 95.006 36.9048C95.2645 37.0838 95.4776 37.3139 95.6452 37.5952C95.8128 37.8764 95.8966 38.2216 95.8966 38.6307C95.8966 39.1023 95.773 39.5284 95.5259 39.9091C95.2815 40.2898 94.9236 40.5923 94.452 40.8168C93.9832 41.0412 93.4136 41.1534 92.7432 41.1534C92.1182 41.1534 91.577 41.0526 91.1196 40.8509C90.6651 40.6491 90.3071 40.3679 90.0457 40.0071C89.7872 39.6463 89.6409 39.2273 89.6068 38.75H90.6977C90.7261 39.0795 90.8369 39.3523 91.0301 39.5682C91.2261 39.7812 91.4733 39.9403 91.7716 40.0455C92.0727 40.1477 92.3966 40.1989 92.7432 40.1989C93.1466 40.1989 93.5088 40.1335 93.8298 40.0028C94.1509 39.8693 94.4051 39.6847 94.5926 39.4489C94.7801 39.2102 94.8739 38.9318 94.8739 38.6136C94.8739 38.3239 94.7929 38.0881 94.631 37.9062C94.469 37.7244 94.256 37.5767 93.9918 37.4631C93.7276 37.3494 93.442 37.25 93.1352 37.1648L92.0614 36.858C91.3795 36.6619 90.8398 36.3821 90.442 36.0185C90.0443 35.6548 89.8455 35.179 89.8455 34.5909C89.8455 34.1023 89.9776 33.6761 90.2418 33.3125C90.5088 32.946 90.8668 32.6619 91.3156 32.4602C91.7673 32.2557 92.2716 32.1534 92.8284 32.1534C93.3909 32.1534 93.8909 32.2543 94.3284 32.456C94.7659 32.6548 95.1125 32.9276 95.3682 33.2741C95.6267 33.6207 95.7631 34.0142 95.7773 34.4545H94.7545ZM103.967 34.4545C103.916 34.0227 103.708 33.6875 103.345 33.4489C102.981 33.2102 102.535 33.0909 102.007 33.0909C101.62 33.0909 101.282 33.1534 100.992 33.2784C100.706 33.4034 100.481 33.5753 100.319 33.794C100.16 34.0128 100.081 34.2614 100.081 34.5398C100.081 34.7727 100.136 34.973 100.247 35.1406C100.36 35.3054 100.505 35.4432 100.681 35.554C100.858 35.6619 101.042 35.7514 101.235 35.8224C101.429 35.8906 101.606 35.946 101.768 35.9886L102.654 36.2273C102.882 36.2869 103.135 36.3693 103.413 36.4744C103.694 36.5795 103.963 36.723 104.218 36.9048C104.477 37.0838 104.69 37.3139 104.858 37.5952C105.025 37.8764 105.109 38.2216 105.109 38.6307C105.109 39.1023 104.985 39.5284 104.738 39.9091C104.494 40.2898 104.136 40.5923 103.664 40.8168C103.196 41.0412 102.626 41.1534 101.956 41.1534C101.331 41.1534 100.789 41.0526 100.332 40.8509C99.8774 40.6491 99.5194 40.3679 99.2581 40.0071C98.9996 39.6463 98.8533 39.2273 98.8192 38.75H99.9101C99.9385 39.0795 100.049 39.3523 100.242 39.5682C100.438 39.7812 100.686 39.9403 100.984 40.0455C101.285 40.1477 101.609 40.1989 101.956 40.1989C102.359 40.1989 102.721 40.1335 103.042 40.0028C103.363 39.8693 103.617 39.6847 103.805 39.4489C103.992 39.2102 104.086 38.9318 104.086 38.6136C104.086 38.3239 104.005 38.0881 103.843 37.9062C103.681 37.7244 103.468 37.5767 103.204 37.4631C102.94 37.3494 102.654 37.25 102.348 37.1648L101.274 36.858C100.592 36.6619 100.052 36.3821 99.6544 36.0185C99.2567 35.6548 99.0578 35.179 99.0578 34.5909C99.0578 34.1023 99.1899 33.6761 99.4541 33.3125C99.7212 32.946 100.079 32.6619 100.528 32.4602C100.98 32.2557 101.484 32.1534 102.041 32.1534C102.603 32.1534 103.103 32.2543 103.541 32.456C103.978 32.6548 104.325 32.9276 104.581 33.2741C104.839 33.6207 104.975 34.0142 104.99 34.4545H103.967Z" fill="white" fill-opacity="0.71"/>
</svg>
